# xmcd CD database file
# Copyright (C) 1993-1998 Ti Kan
# 
# Track frame offsets:
#     225
#     12675
#     27485
#     40147
#     49910
#     60252
#     69767
#     79592
#     89435
#     100155
#     113742
#     124985
#     137650
#     148927
#     162312
#     181530
#     194132
#     205745
#     215050
#     227845
#     239277
#     247600
#     267125
#     276700
# 
# Disc length: 3818 seconds
# 
# Revision: 1
# Processed by: cddbd v1.4b41PL1 Copyright (c) Steve Scherf et al.
# Submitted via: DiscPlay 4.0.4
# 
DISCID=5e0ee718
DTITLE=Various Country - Country Memories [CD3]
DYEAR=1900
DGENRE=
TTITLE0=500 Miles
TTITLE1=Ringo
TTITLE2=I Love You Because
TTITLE3=On the Rebound
TTITLE4=Lonely Blue Boy
TTITLE5=Chuq-a-Lug
TTITLE6=From a Jack to a King
TTITLE7=Lonely Weekends
TTITLE8=I'm a Fool to Care
TTITLE9=We'll Sing in the Sunshine
TTITLE10=Last Date
TTITLE11=Four Strong Winds
TTITLE12=Crying in the Chapel
TTITLE13=Ruby, Don't Take Your Love to Town
TTITLE14=Ode to Billie Joe
TTITLE15=The Good, the Bad and the Ugly
TTITLE16=Single Girl
TTITLE17=I Won't Forget You
TTITLE18=Don't Cry Daddy
TTITLE19=It's Too Late
TTITLE20=Born a Woman
TTITLE21=Fancy
TTITLE22=Forever
TTITLE23=The Birds and the Bees
EXTD=
EXTT0=
EXTT1=
EXTT2=
EXTT3=
EXTT4=
EXTT5=
EXTT6=
EXTT7=
EXTT8=
EXTT9=
EXTT10=
EXTT11=
EXTT12=
EXTT13=
EXTT14=
EXTT15=
EXTT16=
EXTT17=
EXTT18=
EXTT19=
EXTT20=
EXTT21=
EXTT22=
EXTT23=
PLAYORDER=
